<svg width="61" height="61" viewBox="0 0 61 61" fill="none" xmlns="http://www.w3.org/2000/svg">
<rect x="0.0899658" y="0.609985" width="60" height="60" rx="30" fill="black"/>
<path d="M20.0997 31.8698H40.0802C40.4318 31.8502 40.7296 31.7233 40.9738 31.4889C41.2179 31.2545 41.34 30.9615 41.34 30.61C41.34 30.2584 41.2179 29.9655 40.9738 29.7311C40.7296 29.4967 40.4318 29.3698 40.0802 29.3502H20.0997C19.7482 29.3698 19.4503 29.4967 19.2062 29.7311C18.962 29.9655 18.84 30.2584 18.84 30.61C18.84 30.9615 18.962 31.2545 19.2062 31.4889C19.4503 31.7233 19.7482 31.8502 20.0997 31.8698ZM31.7013 37.2311C31.4669 37.485 31.3497 37.778 31.3497 38.11C31.3497 38.442 31.4767 38.7301 31.7306 38.9742C31.9845 39.2184 32.2726 39.3405 32.5948 39.3405C32.9171 39.3405 33.2052 39.2233 33.4591 38.9889L40.9591 31.4889C41.213 31.235 41.34 30.942 41.34 30.61C41.34 30.278 41.213 29.985 40.9591 29.7311L33.4591 22.2311C33.2052 21.9967 32.9171 21.8795 32.5948 21.8795C32.2726 21.8795 31.9845 22.0016 31.7306 22.2457C31.4767 22.4899 31.3497 22.778 31.3497 23.11C31.3497 23.442 31.4669 23.735 31.7013 23.9889L38.3224 30.61L31.7013 37.2311Z" fill="white"/>
</svg>
