<svg width="45" height="46" viewBox="0 0 45 46" fill="none" xmlns="http://www.w3.org/2000/svg">
<path d="M40.8 17.3C40.8 16.9 40.675 16.525 40.425 16.175C40.175 15.825 39.8 15.65 39.3 15.65H5.7C5.2 15.65 4.825 15.825 4.575 16.175C4.325 16.525 4.2 16.9 4.2 17.3L7.05 34.85C7.25 36.05 7.85 37.05 8.85 37.85C9.85 38.65 10.95 39.05 12.15 39.05H32.85C34.05 39.05 35.15 38.65 36.15 37.85C37.15 37.05 37.75 36.05 37.95 34.85L40.8 17.3ZM37.65 18.5L35.1 34.4C35 34.9 34.725 35.35 34.275 35.75C33.825 36.15 33.35 36.35 32.85 36.35H12.15C11.65 36.35 11.175 36.15 10.725 35.75C10.275 35.35 10 34.9 9.9 34.4L7.35 18.5H37.65ZM34.95 16.4L29.4 6.95005C29.2 6.65005 28.9 6.45005 28.5 6.35005C28.1 6.25005 27.725 6.30005 27.375 6.50005C27.025 6.70005 26.8 6.97505 26.7 7.32505C26.6 7.67505 26.65 8.05005 26.85 8.45005L32.55 17.75C32.75 18.15 33.025 18.4 33.375 18.5C33.725 18.6 34.075 18.55 34.425 18.35C34.775 18.15 35 17.85 35.1 17.45C35.2 17.05 35.15 16.7 34.95 16.4ZM12.45 17.75L18.15 8.45005C18.35 8.05005 18.4 7.67505 18.3 7.32505C18.2 6.97505 17.975 6.70005 17.625 6.50005C17.275 6.30005 16.9 6.25005 16.5 6.35005C16.1 6.45005 15.8 6.65005 15.6 6.95005L10.05 16.4C9.85 16.7 9.8 17.05 9.9 17.45C10 17.85 10.225 18.15 10.575 18.35C10.925 18.55 11.275 18.6 11.625 18.5C11.975 18.4 12.25 18.15 12.45 17.75ZM21.15 23.6V31.1C21.15 31.5 21.275 31.85 21.525 32.15C21.775 32.45 22.1 32.6 22.5 32.6C22.9 32.6 23.225 32.45 23.475 32.15C23.725 31.85 23.85 31.5 23.85 31.1V23.6C23.85 23.2 23.725 22.875 23.475 22.625C23.225 22.375 22.9 22.25 22.5 22.25C22.1 22.25 21.775 22.375 21.525 22.625C21.275 22.875 21.15 23.2 21.15 23.6ZM13.65 23.6V31.1C13.65 31.5 13.775 31.85 14.025 32.15C14.275 32.45 14.6 32.6 15 32.6C15.4 32.6 15.725 32.45 15.975 32.15C16.225 31.85 16.35 31.5 16.35 31.1V23.6C16.35 23.2 16.225 22.875 15.975 22.625C15.725 22.375 15.4 22.25 15 22.25C14.6 22.25 14.275 22.375 14.025 22.625C13.775 22.875 13.65 23.2 13.65 23.6ZM28.65 23.6V31.1C28.65 31.5 28.775 31.85 29.025 32.15C29.275 32.45 29.6 32.6 30 32.6C30.4 32.6 30.725 32.45 30.975 32.15C31.225 31.85 31.35 31.5 31.35 31.1V23.6C31.35 23.2 31.225 22.875 30.975 22.625C30.725 22.375 30.4 22.25 30 22.25C29.6 22.25 29.275 22.375 29.025 22.625C28.775 22.875 28.65 23.2 28.65 23.6ZM41.25 15.65H3.75C3.35 15.65 3.025 15.8 2.775 16.1C2.525 16.4 2.4 16.725 2.4 17.075C2.4 17.425 2.525 17.75 2.775 18.05C3.025 18.35 3.35 18.5 3.75 18.5H41.25C41.65 18.5 41.975 18.35 42.225 18.05C42.475 17.75 42.6 17.425 42.6 17.075C42.6 16.725 42.475 16.4 42.225 16.1C41.975 15.8 41.65 15.65 41.25 15.65Z" fill="white"/>
</svg>
