<svg width="141" height="141" viewBox="0 0 141 141" fill="none" xmlns="http://www.w3.org/2000/svg">
<path d="M77.0088 69.4487C77.9775 70.0425 77.9775 71.4487 77.0088 72.0425L66.0088 78.5425C65.0088 79.1362 63.7588 78.4175 63.7588 77.23V64.23C63.7588 62.9487 65.1025 62.4175 66.0088 62.9487L77.0088 69.4487Z" fill="#444444"/>
<path d="M79.1071 19.2289L81.8924 8.38074L83.7211 8.85027L85.5119 17.1235L91.0668 10.7363L92.911 11.2098L90.1257 22.058L88.576 21.6601L90.665 13.524L85.603 19.2779L84.4097 18.9715L82.7418 11.5062L80.6568 19.6268L79.1071 19.2289Z" fill="black"/>
<path d="M95.6857 25.4057C94.7417 24.8867 94.0254 24.219 93.5369 23.4027C93.0535 22.577 92.8143 21.6726 92.8193 20.6894C92.8387 19.7019 93.1259 18.7035 93.6809 17.694C94.2307 16.6938 94.9147 15.9256 95.7329 15.3895C96.5656 14.8491 97.46 14.5618 98.4161 14.5275C99.3722 14.4932 100.322 14.7355 101.266 15.2545C102.229 15.7838 102.952 16.4613 103.436 17.287C103.928 18.1177 104.16 19.0243 104.131 20.0066C104.117 20.9847 103.835 21.9738 103.285 22.974C102.73 23.9835 102.041 24.761 101.218 25.3065C100.409 25.8478 99.5218 26.133 98.5564 26.1622C97.6054 26.1871 96.6485 25.935 95.6857 25.4057ZM96.3858 24.1655C97.0588 24.5355 97.7324 24.705 98.4068 24.6741C99.0904 24.6482 99.7246 24.4247 100.309 24.0036C100.903 23.5875 101.418 22.9823 101.855 22.1878C102.292 21.3932 102.527 20.6338 102.56 19.9095C102.602 19.1903 102.449 18.5398 102.099 17.958C101.764 17.3721 101.26 16.8941 100.587 16.5241C99.9137 16.1541 99.2353 15.9821 98.5516 16.0079C97.8825 16.0295 97.2509 16.2483 96.657 16.6644C96.0632 17.0804 95.5478 17.6857 95.111 18.4802C94.6742 19.2747 94.4393 20.0341 94.4063 20.7585C94.3732 21.4828 94.5243 22.138 94.8595 22.7239C95.204 23.315 95.7128 23.7955 96.3858 24.1655Z" fill="black"/>
<path d="M103.78 30.5682L111.447 22.4038L114.212 24.9996C114.857 25.6056 115.284 26.211 115.491 26.8157C115.699 27.4205 115.728 27.9968 115.58 28.5448C115.446 29.0923 115.164 29.5955 114.733 30.0543C114.324 30.4897 113.843 30.7991 113.29 30.9825C112.745 31.1581 112.157 31.1615 111.525 30.9927C110.908 30.8234 110.273 30.4321 109.62 29.8187L108.057 28.3511L104.947 31.6635L103.78 30.5682ZM108.061 34.5879L109.718 29.3176L111.001 30.5224L109.426 35.8694L108.061 34.5879ZM108.89 27.4646L110.406 28.8885C110.981 29.4288 111.537 29.6868 112.072 29.6625C112.614 29.6303 113.093 29.3927 113.509 28.9494C113.933 28.4985 114.137 28.0166 114.121 27.504C114.104 26.9914 113.797 26.4539 113.198 25.8917L111.694 24.4788L108.89 27.4646Z" fill="black"/>
<path d="M112.747 40.1165L122.204 34.1153L125.985 40.0728L124.877 40.7758L121.953 36.1692L118.927 38.0896L121.594 42.291L120.513 42.9768L117.847 38.7755L114.712 40.7644L117.636 45.3711L116.528 46.0741L112.747 40.1165Z" fill="black"/>
<path d="M122.342 68.0794C122.273 66.9829 122.452 66.0204 122.881 65.1918C123.321 64.3626 123.958 63.7026 124.793 63.2119C125.639 62.7311 126.637 62.4546 127.787 62.3823C128.926 62.3106 129.945 62.4602 130.845 62.8311C131.745 63.2127 132.46 63.7876 132.989 64.5559C133.529 65.3235 133.834 66.2555 133.903 67.352C133.984 68.6508 133.737 69.7298 133.16 70.589C132.584 71.4482 131.733 72.0201 130.607 72.3047L130.498 70.5642C131.147 70.3523 131.653 69.9838 132.015 69.4587C132.378 68.9442 132.533 68.2665 132.48 67.4255C132.434 66.6803 132.217 66.0366 131.83 65.4945C131.444 64.963 130.917 64.5687 130.249 64.3115C129.58 64.0542 128.794 63.9541 127.889 64.011C126.984 64.068 126.211 64.2662 125.57 64.6058C124.939 64.9448 124.466 65.4021 124.149 65.9777C123.844 66.5634 123.715 67.2288 123.762 67.974C123.815 68.815 124.043 69.4686 124.446 69.9349C124.861 70.4111 125.398 70.7087 126.057 70.8275L126.168 72.584C125.047 72.4408 124.147 71.979 123.468 71.1988C122.799 70.418 122.423 69.3782 122.342 68.0794Z" fill="black"/>
<path d="M121.458 80.589C121.66 79.5307 122.074 78.6432 122.699 77.9263C123.335 77.2115 124.121 76.7045 125.058 76.4054C126.003 76.1187 127.041 76.0833 128.173 76.2992C129.294 76.5131 130.236 76.9262 130.999 77.5387C131.77 78.1636 132.32 78.9254 132.648 79.8241C132.976 80.7229 133.039 81.7013 132.837 82.7596C132.631 83.8388 132.21 84.7358 131.574 85.4507C130.936 86.176 130.146 86.6767 129.203 86.9529C128.268 87.2415 127.24 87.2789 126.119 87.0651C124.988 86.8492 124.035 86.4341 123.262 85.8196C122.497 85.2177 121.952 84.4621 121.626 83.5529C121.308 82.6561 121.252 81.6682 121.458 80.589ZM122.854 80.8715C122.71 81.6259 122.757 82.319 122.995 82.9507C123.231 83.593 123.639 84.127 124.22 84.5528C124.8 84.989 125.534 85.2921 126.425 85.462C127.316 85.6319 128.111 85.6206 128.81 85.4282C129.507 85.2463 130.078 84.8992 130.523 84.3868C130.977 83.887 131.276 83.2599 131.42 82.5055C131.563 81.7511 131.517 81.0528 131.282 80.4105C131.054 79.7808 130.651 79.2478 130.072 78.8115C129.493 78.3753 128.758 78.0722 127.867 77.9023C126.977 77.7324 126.182 77.7437 125.483 77.9361C124.783 78.1285 124.207 78.4746 123.753 78.9744C123.298 79.4848 122.998 80.1171 122.854 80.8715Z" fill="black"/>
<path d="M118.648 90.7411L128.782 95.5099L128.1 96.9576L119.11 92.727L116.93 97.3598L115.786 96.8216L118.648 90.7411Z" fill="black"/>
<path d="M112.348 101.845L120.978 108.984L119.958 110.217L112.302 103.884L109.038 107.829L108.064 107.023L112.348 101.845Z" fill="black"/>
<path d="M103.799 110.891L110.382 119.952L104.673 124.099L103.902 123.038L108.316 119.831L106.21 116.931L102.184 119.856L101.432 118.821L105.457 115.896L103.275 112.893L98.8615 116.1L98.0903 115.038L103.799 110.891Z" fill="black"/>
<path d="M89.2361 119.081C90.2576 118.676 91.2286 118.55 92.1492 118.702C93.0736 118.863 93.8982 119.265 94.6228 119.908C95.3415 120.564 95.9129 121.428 96.337 122.499C96.7572 123.56 96.9299 124.576 96.8552 125.546C96.7705 126.52 96.4446 127.378 95.8775 128.118C95.3143 128.869 94.522 129.447 93.5005 129.851C92.2905 130.33 91.1879 130.428 90.1925 130.146C89.1972 129.863 88.3903 129.23 87.7718 128.247L89.3933 127.605C89.7955 128.157 90.3022 128.525 90.9136 128.707C91.5151 128.893 92.2076 128.831 92.9911 128.521C93.6854 128.246 94.2305 127.841 94.6266 127.306C95.0127 126.774 95.2248 126.151 95.263 125.436C95.3012 124.721 95.1534 123.942 94.8196 123.099C94.4858 122.256 94.0584 121.582 93.5372 121.077C93.02 120.582 92.4388 120.273 91.7935 120.15C91.1422 120.041 90.4694 120.124 89.7752 120.399C88.9917 120.709 88.4406 121.128 88.1218 121.656C87.797 122.197 87.68 122.8 87.7708 123.464L86.1344 124.112C85.9243 123.002 86.0853 122.003 86.6173 121.116C87.1532 120.238 88.0261 119.56 89.2361 119.081Z" fill="black"/>
<path d="M77.605 122.258L78.8443 132.068L82.1302 131.653L82.2946 132.954L74.1196 133.987L73.9552 132.685L77.2569 132.268L76.0176 122.458L77.605 122.258Z" fill="black"/>
<path d="M64.5396 122.378L63.1359 133.49L61.5485 133.29L62.9522 122.178L64.5396 122.378Z" fill="black"/>
<path d="M50.9172 118.66C51.9189 119.056 52.7132 119.629 53.3002 120.378C53.8832 121.136 54.2339 122.003 54.3522 122.98C54.4567 123.962 54.2969 124.988 53.8728 126.059C53.4526 127.121 52.8703 127.968 52.1258 128.603C51.3674 129.243 50.5161 129.641 49.5718 129.794C48.6275 129.948 47.6545 129.827 46.6529 129.43C45.6313 129.026 44.8291 128.444 44.246 127.686C43.6531 126.923 43.3094 126.053 43.2148 125.075C43.1064 124.103 43.2623 123.086 43.6824 122.025C44.1065 120.954 44.6928 120.096 45.4412 119.451C46.1758 118.813 47.0202 118.419 47.9744 118.269C48.9148 118.125 49.8957 118.255 50.9172 118.66ZM50.3781 119.978C49.6641 119.695 48.9745 119.611 48.3093 119.727C47.6343 119.838 47.0332 120.139 46.5061 120.63C45.969 121.117 45.5336 121.783 45.1998 122.626C44.8661 123.469 44.7282 124.251 44.7862 124.974C44.8343 125.693 45.0682 126.319 45.488 126.852C45.894 127.392 46.454 127.803 47.1681 128.085C47.8822 128.368 48.5767 128.454 49.2518 128.343C49.913 128.237 50.5121 127.941 51.0492 127.454C51.5862 126.967 52.0216 126.302 52.3554 125.459C52.6891 124.616 52.827 123.833 52.769 123.11C52.711 122.387 52.479 121.756 52.0731 121.217C51.6572 120.674 51.0922 120.261 50.3781 119.978Z" fill="black"/>
<path d="M43.5006 115.318L36.9174 124.379L35.623 123.439L36.0521 113.13L31.0019 120.081L29.7075 119.141L36.2906 110.08L37.5851 111.02L37.1653 121.316L42.2062 114.378L43.5006 115.318Z" fill="black"/>
<path d="M24.8392 95.6403L14.7051 100.409L11.7008 94.0246L12.888 93.4659L15.211 98.4027L18.4539 96.8767L16.3352 92.3743L17.4934 91.8293L19.6121 96.3317L22.9708 94.7512L20.6478 89.8144L21.8349 89.2558L24.8392 95.6403Z" fill="black"/>
<path d="M20.3154 84.6515L14.1041 82.3181L9.31677 86.7659L8.97499 84.9742L12.6579 81.5678L8.0066 79.8978L7.67081 78.1375L13.8162 80.4672L18.6634 75.9917L19.0052 77.7834L15.2654 81.2332L19.9766 82.8755L20.3154 84.6515Z" fill="black"/>
<path d="M18.4819 70.8679L7.30402 70.1646L7.54413 66.3482C7.59973 65.4646 7.79464 64.7448 8.12889 64.1886C8.45249 63.6319 8.87849 63.2312 9.40689 62.9865C9.92532 62.7306 10.4986 62.6223 11.1267 62.6619C11.7441 62.7007 12.2996 62.8746 12.7932 63.1835C13.2768 63.4812 13.6549 63.9271 13.9274 64.5214C14.1893 65.115 14.2918 65.8643 14.2349 66.7691L14.0953 68.9887L18.5824 69.2711L18.4819 70.8679ZM12.7699 68.9054L12.9055 66.7496C12.9578 65.9193 12.8139 65.317 12.4741 64.943C12.1243 64.5576 11.6406 64.3455 11.0232 64.3066C10.3845 64.2664 9.87805 64.4163 9.50397 64.7561C9.13056 65.0853 8.91774 65.6651 8.8655 66.4954L8.72987 68.6512L12.7699 68.9054Z" fill="black"/>
<path d="M20.2299 57.4525L9.57808 53.9915L10.0725 52.4698L19.5222 55.5402L21.1044 50.6707L22.3065 51.0613L20.2299 57.4525Z" fill="black"/>
<path d="M27.2784 42.3003C26.7011 43.2099 25.9898 43.8828 25.1444 44.3191C24.2901 44.7497 23.3724 44.9316 22.3914 44.8649C21.4071 44.7835 20.4287 44.4342 19.456 43.8169C18.4923 43.2054 17.7686 42.4745 17.2849 41.6243C16.7979 40.7593 16.5673 39.8487 16.5931 38.8923C16.6189 37.9359 16.9204 37.0029 17.4977 36.0933C18.0864 35.1656 18.8079 34.4865 19.6623 34.056C20.5224 33.6164 21.4417 33.4418 22.4203 33.5322C23.3955 33.6079 24.365 33.9515 25.3287 34.5631C26.3013 35.1804 27.034 35.917 27.5268 36.7729C28.0162 37.6141 28.2452 38.5174 28.2136 39.4828C28.1788 40.4335 27.8671 41.3726 27.2784 42.3003ZM26.0846 41.5237C26.4961 40.8753 26.7076 40.2136 26.7191 39.5387C26.7362 38.8547 26.553 38.2078 26.1693 37.598C25.7914 36.9792 25.2197 36.4268 24.4542 35.941C23.6887 35.4552 22.9455 35.1731 22.2246 35.0946C21.5095 35.0072 20.8507 35.1196 20.2481 35.4321C19.6423 35.7298 19.1336 36.2029 18.7221 36.8513C18.3106 37.4998 18.0962 38.166 18.0791 38.8499C18.0587 39.5192 18.2374 40.1632 18.6153 40.782C18.9932 41.4008 19.5649 41.9532 20.3305 42.439C21.096 42.9248 21.8392 43.2069 22.56 43.2854C23.2808 43.3639 23.9442 43.2542 24.55 42.9565C25.1616 42.6498 25.6731 42.1722 26.0846 41.5237Z" fill="black"/>
<path d="M32.586 35.0887L24.9191 26.9243L27.6833 24.3285C28.3287 23.7224 28.9597 23.3348 29.5762 23.1655C30.1928 22.9962 30.7698 23.003 31.3074 23.1859C31.8455 23.3538 32.3299 23.6671 32.7607 24.1258C33.1696 24.5613 33.4482 25.0605 33.5966 25.6236C33.7376 26.1789 33.704 26.7664 33.4959 27.3862C33.2882 27.991 32.8578 28.6 32.2047 29.2133L30.6417 30.681L33.7523 33.9934L32.586 35.0887ZM36.8665 31.0691L31.7107 29.0846L32.9936 27.8798L38.2311 29.7876L36.8665 31.0691ZM29.8093 29.7946L31.3256 28.3707C31.901 27.8304 32.1933 27.2925 32.2026 26.757C32.2046 26.2137 31.9975 25.7205 31.5813 25.2773C31.1578 24.8263 30.6897 24.5927 30.1771 24.5766C29.6644 24.5605 29.1088 24.8336 28.51 25.3958L27.0054 26.8087L29.8093 29.7946Z" fill="black"/>
<path d="M42.951 26.5886L37.5554 16.774L43.7386 13.3747L44.3707 14.5244L39.5896 17.1529L41.3162 20.2936L45.6767 17.8964L46.2933 19.018L41.9328 21.4152L43.7211 24.6681L48.5022 22.0396L49.1343 23.1893L42.951 26.5886Z" fill="black"/>
</svg>
