<svg width="75" height="76" viewBox="0 0 75 76" fill="none" xmlns="http://www.w3.org/2000/svg">
<g filter="url(#filter0_d_2_203)">
<g clip-path="url(#clip0_2_203)">
<rect x="15" y="0.199951" width="45" height="45" rx="22.5" fill="black" fill-opacity="0.3" shape-rendering="crispEdges"/>
<path d="M55.8 17.3C55.8 16.9 55.675 16.525 55.425 16.175C55.175 15.825 54.8 15.65 54.3 15.65H20.7C20.2 15.65 19.825 15.825 19.575 16.175C19.325 16.525 19.2 16.9 19.2 17.3L22.05 34.85C22.25 36.05 22.85 37.05 23.85 37.85C24.85 38.65 25.95 39.05 27.15 39.05H47.85C49.05 39.05 50.15 38.65 51.15 37.85C52.15 37.05 52.75 36.05 52.95 34.85L55.8 17.3ZM52.65 18.5L50.1 34.4C50 34.9 49.725 35.35 49.275 35.75C48.825 36.15 48.35 36.35 47.85 36.35H27.15C26.65 36.35 26.175 36.15 25.725 35.75C25.275 35.35 25 34.9 24.9 34.4L22.35 18.5H52.65ZM49.95 16.4L44.4 6.95005C44.2 6.65005 43.9 6.45005 43.5 6.35005C43.1 6.25005 42.725 6.30005 42.375 6.50005C42.025 6.70005 41.8 6.97505 41.7 7.32505C41.6 7.67505 41.65 8.05005 41.85 8.45005L47.55 17.75C47.75 18.15 48.025 18.4 48.375 18.5C48.725 18.6 49.075 18.55 49.425 18.35C49.775 18.15 50 17.85 50.1 17.45C50.2 17.05 50.15 16.7 49.95 16.4ZM27.45 17.75L33.15 8.45005C33.35 8.05005 33.4 7.67505 33.3 7.32505C33.2 6.97505 32.975 6.70005 32.625 6.50005C32.275 6.30005 31.9 6.25005 31.5 6.35005C31.1 6.45005 30.8 6.65005 30.6 6.95005L25.05 16.4C24.85 16.7 24.8 17.05 24.9 17.45C25 17.85 25.225 18.15 25.575 18.35C25.925 18.55 26.275 18.6 26.625 18.5C26.975 18.4 27.25 18.15 27.45 17.75ZM36.15 23.6V31.1C36.15 31.5 36.275 31.85 36.525 32.15C36.775 32.45 37.1 32.6 37.5 32.6C37.9 32.6 38.225 32.45 38.475 32.15C38.725 31.85 38.85 31.5 38.85 31.1V23.6C38.85 23.2 38.725 22.875 38.475 22.625C38.225 22.375 37.9 22.25 37.5 22.25C37.1 22.25 36.775 22.375 36.525 22.625C36.275 22.875 36.15 23.2 36.15 23.6ZM28.65 23.6V31.1C28.65 31.5 28.775 31.85 29.025 32.15C29.275 32.45 29.6 32.6 30 32.6C30.4 32.6 30.725 32.45 30.975 32.15C31.225 31.85 31.35 31.5 31.35 31.1V23.6C31.35 23.2 31.225 22.875 30.975 22.625C30.725 22.375 30.4 22.25 30 22.25C29.6 22.25 29.275 22.375 29.025 22.625C28.775 22.875 28.65 23.2 28.65 23.6ZM43.65 23.6V31.1C43.65 31.5 43.775 31.85 44.025 32.15C44.275 32.45 44.6 32.6 45 32.6C45.4 32.6 45.725 32.45 45.975 32.15C46.225 31.85 46.35 31.5 46.35 31.1V23.6C46.35 23.2 46.225 22.875 45.975 22.625C45.725 22.375 45.4 22.25 45 22.25C44.6 22.25 44.275 22.375 44.025 22.625C43.775 22.875 43.65 23.2 43.65 23.6ZM56.25 15.65H18.75C18.35 15.65 18.025 15.8 17.775 16.1C17.525 16.4 17.4 16.725 17.4 17.075C17.4 17.425 17.525 17.75 17.775 18.05C18.025 18.35 18.35 18.5 18.75 18.5H56.25C56.65 18.5 56.975 18.35 57.225 18.05C57.475 17.75 57.6 17.425 57.6 17.075C57.6 16.725 57.475 16.4 57.225 16.1C56.975 15.8 56.65 15.65 56.25 15.65Z" fill="white"/>
</g>
</g>
<defs>
<filter id="filter0_d_2_203" x="0" y="0.199951" width="75" height="75" filterUnits="userSpaceOnUse" color-interpolation-filters="sRGB">
<feFlood flood-opacity="0" result="BackgroundImageFix"/>
<feColorMatrix in="SourceAlpha" type="matrix" values="0 0 0 0 0 0 0 0 0 0 0 0 0 0 0 0 0 0 127 0" result="hardAlpha"/>
<feOffset dy="15"/>
<feGaussianBlur stdDeviation="7.5"/>
<feComposite in2="hardAlpha" operator="out"/>
<feColorMatrix type="matrix" values="0 0 0 0 0 0 0 0 0 0 0 0 0 0 0 0 0 0 0.05 0"/>
<feBlend mode="normal" in2="BackgroundImageFix" result="effect1_dropShadow_2_203"/>
<feBlend mode="normal" in="SourceGraphic" in2="effect1_dropShadow_2_203" result="shape"/>
</filter>
<clipPath id="clip0_2_203">
<rect x="15" y="0.199951" width="45" height="45" rx="22.5" fill="white"/>
</clipPath>
</defs>
</svg>
